<svg xmlns="http://www.w3.org/2000/svg" xmlns:xlink="http://www.w3.org/1999/xlink" width="238" zoomAndPan="magnify" viewBox="0 0 178.5 176.249993" height="235" preserveAspectRatio="xMidYMid meet" version="1.0"><path fill="#ffffff" d="M 87.730469 87.601562 C 0.125 175.207031 175.335938 175.207031 87.730469 87.601562 Z M 87.730469 87.601562 " fill-opacity="1" fill-rule="nonzero"/><path fill="#ffffff" d="M 87.730469 87.601562 C 0.125 -0.00390625 0.125 175.207031 87.730469 87.601562 Z M 87.730469 87.601562 " fill-opacity="1" fill-rule="nonzero"/><path fill="#ffffff" d="M 87.730469 87.601562 C 175.335938 175.207031 175.335938 -0.00390625 87.730469 87.601562 Z M 87.730469 87.601562 " fill-opacity="1" fill-rule="nonzero"/><path fill="#ffffff" d="M 87.730469 87.601562 C 175.335938 -0.00390625 0.125 -0.00390625 87.730469 87.601562 Z M 87.730469 87.601562 " fill-opacity="1" fill-rule="nonzero"/><path fill="#ffffff" d="M 89.574219 87.601562 C 1.96875 175.207031 177.183594 175.207031 89.574219 87.601562 Z M 89.574219 87.601562 " fill-opacity="1" fill-rule="nonzero"/><path fill="#ffffff" d="M 89.574219 87.601562 C 1.96875 -0.00390625 1.96875 175.207031 89.574219 87.601562 Z M 89.574219 87.601562 " fill-opacity="1" fill-rule="nonzero"/><path fill="#ffffff" d="M 89.574219 87.601562 C 177.183594 175.207031 177.183594 -0.00390625 89.574219 87.601562 Z M 89.574219 87.601562 " fill-opacity="1" fill-rule="nonzero"/><path fill="#ffffff" d="M 89.574219 87.601562 C 177.183594 -0.00390625 1.96875 -0.00390625 89.574219 87.601562 Z M 89.574219 87.601562 " fill-opacity="1" fill-rule="nonzero"/></svg>