<svg xmlns="http://www.w3.org/2000/svg" xmlns:xlink="http://www.w3.org/1999/xlink" width="268" zoomAndPan="magnify" viewBox="0 0 200.87999 202.499994" height="270" preserveAspectRatio="xMidYMid meet" version="1.0"><path fill="#ffffff" d="M 95.394531 96.632812 C 74.882812 1.429688 0.191406 76.121094 95.394531 96.632812 Z M 95.394531 96.632812 " fill-opacity="1" fill-rule="nonzero"/><path fill="#ffffff" d="M 105.039062 96.632812 C 200.242188 76.121094 125.550781 1.429688 105.039062 96.632812 Z M 105.039062 96.632812 " fill-opacity="1" fill-rule="nonzero"/><path fill="#ffffff" d="M 95.394531 106.277344 C 0.191406 126.789062 74.882812 201.480469 95.394531 106.277344 Z M 95.394531 106.277344 " fill-opacity="1" fill-rule="nonzero"/><path fill="#ffffff" d="M 148.433594 101.457031 C 131.292969 101.457031 116.820312 100.3125 104.675781 98.367188 C 104.792969 97.78125 104.917969 97.207031 105.039062 96.632812 C 104.46875 96.757812 103.890625 96.878906 103.304688 96.996094 C 101.359375 84.851562 100.21875 70.378906 100.21875 53.242188 C 100.21875 70.378906 99.074219 84.851562 97.128906 96.996094 C 96.542969 96.878906 95.964844 96.757812 95.394531 96.632812 C 95.519531 97.207031 95.640625 97.785156 95.757812 98.367188 C 83.613281 100.3125 69.140625 101.457031 52.003906 101.457031 C 69.140625 101.457031 83.613281 102.597656 95.757812 104.542969 C 95.640625 105.128906 95.519531 105.707031 95.394531 106.277344 C 95.96875 106.15625 96.546875 106.03125 97.128906 105.914062 C 99.074219 118.058594 100.21875 132.53125 100.21875 149.671875 C 100.21875 132.535156 101.359375 118.058594 103.304688 105.914062 C 103.890625 106.03125 104.46875 106.15625 105.039062 106.277344 C 104.917969 105.707031 104.792969 105.128906 104.675781 104.542969 C 116.820312 102.597656 131.292969 101.457031 148.433594 101.457031 Z M 148.433594 101.457031 " fill-opacity="1" fill-rule="nonzero"/><path fill="#ffffff" d="M 105.039062 106.277344 C 125.550781 201.480469 200.242188 126.789062 105.039062 106.277344 Z M 105.039062 106.277344 " fill-opacity="1" fill-rule="nonzero"/><path fill="#ffffff" d="M 95.394531 95.207031 C 74.882812 0.00390625 0.191406 74.695312 95.394531 95.207031 Z M 95.394531 95.207031 " fill-opacity="1" fill-rule="nonzero"/><path fill="#ffffff" d="M 105.039062 95.207031 C 200.242188 74.695312 125.550781 0.00390625 105.039062 95.207031 Z M 105.039062 95.207031 " fill-opacity="1" fill-rule="nonzero"/><path fill="#ffffff" d="M 95.394531 104.851562 C 0.191406 125.363281 74.882812 200.054688 95.394531 104.851562 Z M 95.394531 104.851562 " fill-opacity="1" fill-rule="nonzero"/><path fill="#ffffff" d="M 148.433594 100.03125 C 131.292969 100.03125 116.820312 98.886719 104.675781 96.941406 C 104.792969 96.355469 104.917969 95.78125 105.039062 95.207031 C 104.46875 95.332031 103.890625 95.453125 103.304688 95.570312 C 101.359375 83.425781 100.21875 68.953125 100.21875 51.8125 C 100.21875 68.953125 99.074219 83.425781 97.128906 95.570312 C 96.542969 95.453125 95.964844 95.332031 95.394531 95.207031 C 95.519531 95.78125 95.640625 96.359375 95.757812 96.941406 C 83.613281 98.886719 69.140625 100.03125 52.003906 100.03125 C 69.140625 100.03125 83.613281 101.171875 95.757812 103.117188 C 95.640625 103.703125 95.519531 104.28125 95.394531 104.851562 C 95.96875 104.730469 96.546875 104.605469 97.128906 104.488281 C 99.074219 116.632812 100.21875 131.105469 100.21875 148.246094 C 100.21875 131.105469 101.359375 116.632812 103.304688 104.488281 C 103.890625 104.605469 104.46875 104.730469 105.039062 104.851562 C 104.917969 104.28125 104.792969 103.703125 104.675781 103.117188 C 116.820312 101.171875 131.292969 100.03125 148.433594 100.03125 Z M 148.433594 100.03125 " fill-opacity="1" fill-rule="nonzero"/><path fill="#ffffff" d="M 105.039062 104.851562 C 125.550781 200.054688 200.242188 125.363281 105.039062 104.851562 Z M 105.039062 104.851562 " fill-opacity="1" fill-rule="nonzero"/></svg>