<svg xmlns="http://www.w3.org/2000/svg" xmlns:xlink="http://www.w3.org/1999/xlink" width="270" zoomAndPan="magnify" viewBox="0 0 202.5 202.499993" height="270" preserveAspectRatio="xMidYMid meet" version="1.0"><path fill="#ffffff" d="M 100.226562 100.226562 C 49.773438 9.273438 9.273438 49.773438 100.226562 100.226562 Z M 100.226562 100.226562 " fill-opacity="1" fill-rule="nonzero"/><path fill="#ffffff" d="M 101.371094 101.371094 C 151.824219 192.324219 192.324219 151.824219 101.371094 101.371094 Z M 101.371094 101.371094 " fill-opacity="1" fill-rule="nonzero"/><path fill="#ffffff" d="M 100.226562 101.371094 C 9.273438 151.824219 49.773438 192.324219 100.226562 101.371094 Z M 100.226562 101.371094 " fill-opacity="1" fill-rule="nonzero"/><path fill="#ffffff" d="M 101.371094 100.226562 C 192.324219 49.773438 151.824219 9.273438 101.371094 100.226562 Z M 101.371094 100.226562 " fill-opacity="1" fill-rule="nonzero"/><path fill="#ffffff" d="M 100.796875 101.605469 C 72.164062 201.59375 129.433594 201.59375 100.796875 101.605469 Z M 100.796875 101.605469 " fill-opacity="1" fill-rule="nonzero"/><path fill="#ffffff" d="M 101.605469 100.796875 C 101.449219 100.753906 101.289062 100.707031 101.128906 100.660156 C 101.210938 100.515625 101.292969 100.367188 101.371094 100.222656 C 101.226562 100.304688 101.082031 100.386719 100.933594 100.464844 C 100.890625 100.304688 100.84375 100.148438 100.796875 99.988281 C 100.753906 100.148438 100.707031 100.308594 100.660156 100.464844 C 100.515625 100.386719 100.367188 100.304688 100.222656 100.222656 C 100.304688 100.367188 100.386719 100.515625 100.464844 100.660156 C 100.304688 100.703125 100.148438 100.753906 99.988281 100.796875 C 100.148438 100.84375 100.308594 100.886719 100.464844 100.933594 C 100.386719 101.082031 100.304688 101.226562 100.222656 101.371094 C 100.367188 101.292969 100.515625 101.210938 100.660156 101.128906 C 100.703125 101.292969 100.753906 101.449219 100.796875 101.605469 C 100.84375 101.449219 100.886719 101.289062 100.933594 101.128906 C 101.082031 101.210938 101.226562 101.292969 101.371094 101.371094 C 101.292969 101.226562 101.210938 101.082031 101.128906 100.933594 C 101.292969 100.890625 101.449219 100.84375 101.605469 100.796875 Z M 101.605469 100.796875 " fill-opacity="1" fill-rule="nonzero"/><path fill="#ffffff" d="M 99.988281 100.796875 C 0 72.164062 0 129.433594 99.988281 100.796875 Z M 99.988281 100.796875 " fill-opacity="1" fill-rule="nonzero"/><path fill="#ffffff" d="M 100.796875 99.988281 C 129.433594 0 72.164062 0 100.796875 99.988281 Z M 100.796875 99.988281 " fill-opacity="1" fill-rule="nonzero"/><path fill="#ffffff" d="M 101.605469 100.796875 C 201.59375 129.433594 201.59375 72.164062 101.605469 100.796875 Z M 101.605469 100.796875 " fill-opacity="1" fill-rule="nonzero"/><path fill="#ffffff" d="M 100.226562 100.226562 C 49.773438 9.273438 9.273438 49.773438 100.226562 100.226562 Z M 100.226562 100.226562 " fill-opacity="1" fill-rule="nonzero"/><path fill="#ffffff" d="M 101.371094 101.371094 C 151.824219 192.324219 192.324219 151.824219 101.371094 101.371094 Z M 101.371094 101.371094 " fill-opacity="1" fill-rule="nonzero"/><path fill="#ffffff" d="M 100.226562 101.371094 C 9.273438 151.824219 49.773438 192.324219 100.226562 101.371094 Z M 100.226562 101.371094 " fill-opacity="1" fill-rule="nonzero"/><path fill="#ffffff" d="M 101.371094 100.226562 C 192.324219 49.773438 151.824219 9.273438 101.371094 100.226562 Z M 101.371094 100.226562 " fill-opacity="1" fill-rule="nonzero"/><path fill="#ffffff" d="M 100.796875 101.605469 C 72.164062 201.59375 129.433594 201.59375 100.796875 101.605469 Z M 100.796875 101.605469 " fill-opacity="1" fill-rule="nonzero"/><path fill="#ffffff" d="M 101.605469 100.796875 C 101.449219 100.753906 101.289062 100.707031 101.128906 100.660156 C 101.210938 100.515625 101.292969 100.367188 101.371094 100.222656 C 101.226562 100.304688 101.082031 100.386719 100.933594 100.464844 C 100.890625 100.304688 100.84375 100.148438 100.796875 99.988281 C 100.753906 100.148438 100.707031 100.308594 100.660156 100.464844 C 100.515625 100.386719 100.367188 100.304688 100.222656 100.222656 C 100.304688 100.367188 100.386719 100.515625 100.464844 100.660156 C 100.304688 100.703125 100.148438 100.753906 99.988281 100.796875 C 100.148438 100.84375 100.308594 100.886719 100.464844 100.933594 C 100.386719 101.082031 100.304688 101.226562 100.222656 101.371094 C 100.367188 101.292969 100.515625 101.210938 100.660156 101.128906 C 100.703125 101.292969 100.753906 101.449219 100.796875 101.605469 C 100.84375 101.449219 100.886719 101.289062 100.933594 101.128906 C 101.082031 101.210938 101.226562 101.292969 101.371094 101.371094 C 101.292969 101.226562 101.210938 101.082031 101.128906 100.933594 C 101.292969 100.890625 101.449219 100.84375 101.605469 100.796875 Z M 101.605469 100.796875 " fill-opacity="1" fill-rule="nonzero"/><path fill="#ffffff" d="M 99.988281 100.796875 C 0 72.164062 0 129.433594 99.988281 100.796875 Z M 99.988281 100.796875 " fill-opacity="1" fill-rule="nonzero"/><path fill="#ffffff" d="M 100.796875 99.988281 C 129.433594 0 72.164062 0 100.796875 99.988281 Z M 100.796875 99.988281 " fill-opacity="1" fill-rule="nonzero"/><path fill="#ffffff" d="M 101.605469 100.796875 C 201.59375 129.433594 201.59375 72.164062 101.605469 100.796875 Z M 101.605469 100.796875 " fill-opacity="1" fill-rule="nonzero"/></svg>