<svg xmlns="http://www.w3.org/2000/svg" xmlns:xlink="http://www.w3.org/1999/xlink" width="219" zoomAndPan="magnify" viewBox="0 0 164.25 163.499993" height="218" preserveAspectRatio="xMidYMid meet" version="1.0"><defs><clipPath id="a846fffdad"><path d="M 0 18 L 144 18 L 144 161.386719 L 0 161.386719 Z M 0 18 " clip-rule="nonzero"/></clipPath><clipPath id="0b1e34b568"><path d="M 82 0.121094 L 163.503906 0.121094 L 163.503906 81 L 82 81 Z M 82 0.121094 " clip-rule="nonzero"/></clipPath><clipPath id="1aa1e34afa"><path d="M 0 19 L 144 19 L 144 162.808594 L 0 162.808594 Z M 0 19 " clip-rule="nonzero"/></clipPath><clipPath id="2ce0ad455d"><path d="M 82 1.546875 L 163.503906 1.546875 L 163.503906 82 L 82 82 Z M 82 1.546875 " clip-rule="nonzero"/></clipPath></defs><g clip-path="url(#a846fffdad)"><path fill="#ffffff" d="M 52.9375 92.207031 C 41.800781 88.875 0.015625 91.144531 0.015625 89.835938 C 0.015625 88.523438 41.800781 90.789062 52.9375 87.457031 C 61.164062 84.992188 67.171875 75.800781 69.207031 67.449219 C 71.914062 56.308594 70.261719 18.277344 71.578125 18.277344 C 72.890625 18.277344 71.242188 56.308594 73.957031 67.449219 C 75.984375 75.800781 81.988281 84.992188 90.226562 87.457031 C 101.363281 90.789062 143.140625 88.523438 143.140625 89.835938 C 143.140625 91.144531 101.363281 88.875 90.226562 92.207031 C 81.988281 94.675781 75.984375 103.867188 73.957031 112.226562 C 71.242188 123.359375 72.890625 161.390625 71.578125 161.390625 C 70.261719 161.390625 71.914062 123.359375 69.207031 112.226562 C 67.171875 103.867188 61.164062 94.675781 52.9375 92.207031 Z M 52.9375 92.207031 " fill-opacity="1" fill-rule="evenodd"/></g><g clip-path="url(#0b1e34b568)"><path fill="#ffffff" d="M 112.511719 41.625 C 106.261719 39.753906 82.808594 41.027344 82.808594 40.292969 C 82.808594 39.554688 106.261719 40.828125 112.511719 38.957031 C 117.132812 37.574219 120.503906 32.414062 121.644531 27.726562 C 123.164062 21.472656 122.238281 0.125 122.976562 0.125 C 123.714844 0.125 122.789062 21.472656 124.3125 27.726562 C 125.449219 32.414062 128.820312 37.574219 133.445312 38.957031 C 139.695312 40.828125 163.148438 39.554688 163.148438 40.292969 C 163.148438 41.027344 139.695312 39.753906 133.445312 41.625 C 128.820312 43.007812 125.449219 48.167969 124.3125 52.859375 C 122.789062 59.109375 123.714844 80.457031 122.976562 80.457031 C 122.238281 80.457031 123.164062 59.109375 121.644531 52.859375 C 120.503906 48.167969 117.132812 43.007812 112.511719 41.625 Z M 112.511719 41.625 " fill-opacity="1" fill-rule="evenodd"/></g><g clip-path="url(#1aa1e34afa)"><path fill="#ffffff" d="M 52.9375 93.632812 C 41.800781 90.296875 0.015625 92.566406 0.015625 91.261719 C 0.015625 89.945312 41.800781 92.214844 52.9375 88.878906 C 61.164062 86.414062 67.171875 77.222656 69.207031 68.871094 C 71.914062 57.730469 70.261719 19.699219 71.578125 19.699219 C 72.890625 19.699219 71.242188 57.730469 73.957031 68.871094 C 75.984375 77.222656 81.988281 86.414062 90.226562 88.878906 C 101.363281 92.214844 143.140625 89.945312 143.140625 91.261719 C 143.140625 92.566406 101.363281 90.296875 90.226562 93.632812 C 81.988281 96.097656 75.984375 105.289062 73.957031 113.648438 C 71.242188 124.78125 72.890625 162.8125 71.578125 162.8125 C 70.261719 162.8125 71.914062 124.78125 69.207031 113.648438 C 67.171875 105.289062 61.164062 96.097656 52.9375 93.632812 Z M 52.9375 93.632812 " fill-opacity="1" fill-rule="evenodd"/></g><g clip-path="url(#2ce0ad455d)"><path fill="#ffffff" d="M 112.511719 43.046875 C 106.261719 41.175781 82.808594 42.449219 82.808594 41.71875 C 82.808594 40.980469 106.261719 42.253906 112.511719 40.382812 C 117.132812 38.996094 120.503906 33.835938 121.644531 29.152344 C 123.164062 22.894531 122.238281 1.546875 122.976562 1.546875 C 123.714844 1.546875 122.789062 22.894531 124.3125 29.152344 C 125.449219 33.835938 128.820312 38.996094 133.445312 40.382812 C 139.695312 42.253906 163.148438 40.980469 163.148438 41.71875 C 163.148438 42.449219 139.695312 41.175781 133.445312 43.046875 C 128.820312 44.433594 125.449219 49.59375 124.3125 54.285156 C 122.789062 60.535156 123.714844 81.882812 122.976562 81.882812 C 122.238281 81.882812 123.164062 60.535156 121.644531 54.285156 C 120.503906 49.59375 117.132812 44.433594 112.511719 43.046875 Z M 112.511719 43.046875 " fill-opacity="1" fill-rule="evenodd"/></g></svg>