<svg xmlns="http://www.w3.org/2000/svg" xmlns:xlink="http://www.w3.org/1999/xlink" width="430" zoomAndPan="magnify" viewBox="0 0 322.5 73.499998" height="98" preserveAspectRatio="xMidYMid meet" version="1.0"><defs><clipPath id="49d56f5a15"><path d="M 0.839844 0 L 124 0 L 124 72.257812 L 0.839844 72.257812 Z M 0.839844 0 " clip-rule="nonzero"/></clipPath><clipPath id="2a0485a184"><path d="M 99 0 L 223 0 L 223 72.257812 L 99 72.257812 Z M 99 0 " clip-rule="nonzero"/></clipPath><clipPath id="7ec026dc7e"><path d="M 197 0 L 320.417969 0 L 320.417969 72.257812 L 197 72.257812 Z M 197 0 " clip-rule="nonzero"/></clipPath><clipPath id="ad2d9e4a81"><path d="M 0.839844 0 L 124 0 L 124 72.257812 L 0.839844 72.257812 Z M 0.839844 0 " clip-rule="nonzero"/></clipPath><clipPath id="8d22b6957e"><path d="M 99 0 L 223 0 L 223 72.257812 L 99 72.257812 Z M 99 0 " clip-rule="nonzero"/></clipPath><clipPath id="c5f689efb5"><path d="M 197 0 L 320.417969 0 L 320.417969 72.257812 L 197 72.257812 Z M 197 0 " clip-rule="nonzero"/></clipPath></defs><g clip-path="url(#49d56f5a15)"><path fill="#ffffff" d="M 123.644531 42.988281 C 64.800781 37.679688 62.816406 38.320312 38.769531 72.472656 C 59.234375 37.933594 58.339844 36.910156 0.839844 29.492188 C 59.683594 34.863281 61.667969 34.160156 85.714844 0.0078125 C 65.25 34.542969 66.144531 35.566406 123.644531 42.988281 Z M 123.644531 42.988281 " fill-opacity="1" fill-rule="nonzero"/></g><g clip-path="url(#2a0485a184)"><path fill="#ffffff" d="M 222.140625 42.988281 C 163.296875 37.679688 161.316406 38.320312 137.265625 72.472656 C 157.734375 37.933594 156.839844 36.910156 99.339844 29.492188 C 158.179688 34.800781 160.164062 34.160156 184.214844 0.0078125 C 163.746094 34.542969 164.640625 35.566406 222.140625 42.988281 Z M 222.140625 42.988281 " fill-opacity="1" fill-rule="nonzero"/></g><g clip-path="url(#7ec026dc7e)"><path fill="#ffffff" d="M 320.636719 42.988281 C 261.796875 37.679688 259.8125 38.320312 235.765625 72.472656 C 256.230469 37.933594 255.335938 36.910156 197.835938 29.492188 C 256.679688 34.800781 258.660156 34.160156 282.710938 0.0078125 C 262.242188 34.542969 263.140625 35.566406 320.636719 42.988281 Z M 320.636719 42.988281 " fill-opacity="1" fill-rule="nonzero"/></g><g clip-path="url(#ad2d9e4a81)"><path fill="#ffffff" d="M 123.644531 42.988281 C 64.800781 37.679688 62.816406 38.320312 38.769531 72.472656 C 59.234375 37.933594 58.339844 36.910156 0.839844 29.492188 C 59.683594 34.863281 61.667969 34.160156 85.714844 0.0078125 C 65.25 34.542969 66.144531 35.566406 123.644531 42.988281 Z M 123.644531 42.988281 " fill-opacity="1" fill-rule="nonzero"/></g><g clip-path="url(#8d22b6957e)"><path fill="#ffffff" d="M 222.140625 42.988281 C 163.296875 37.679688 161.316406 38.320312 137.265625 72.472656 C 157.734375 37.933594 156.839844 36.910156 99.339844 29.492188 C 158.179688 34.800781 160.164062 34.160156 184.214844 0.0078125 C 163.746094 34.542969 164.640625 35.566406 222.140625 42.988281 Z M 222.140625 42.988281 " fill-opacity="1" fill-rule="nonzero"/></g><g clip-path="url(#c5f689efb5)"><path fill="#ffffff" d="M 320.636719 42.988281 C 261.796875 37.679688 259.8125 38.320312 235.765625 72.472656 C 256.230469 37.933594 255.335938 36.910156 197.835938 29.492188 C 256.679688 34.800781 258.660156 34.160156 282.710938 0.0078125 C 262.242188 34.542969 263.140625 35.566406 320.636719 42.988281 Z M 320.636719 42.988281 " fill-opacity="1" fill-rule="nonzero"/></g></svg>