<svg xmlns="http://www.w3.org/2000/svg" xmlns:xlink="http://www.w3.org/1999/xlink" width="186" zoomAndPan="magnify" viewBox="0 0 139.5 161.999997" height="216" preserveAspectRatio="xMidYMid meet" version="1.0"><defs><clipPath id="f75990b83f"><path d="M 32 23 L 139 23 L 139 161.710938 L 32 161.710938 Z M 32 23 " clip-rule="nonzero"/></clipPath><clipPath id="9a23b78f91"><path d="M 0 0.289062 L 55 0.289062 L 55 72 L 0 72 Z M 0 0.289062 " clip-rule="nonzero"/></clipPath><clipPath id="c3cea3b577"><path d="M 32 23 L 139 23 L 139 161.710938 L 32 161.710938 Z M 32 23 " clip-rule="nonzero"/></clipPath><clipPath id="48b66e92b5"><path d="M 0 0.289062 L 55 0.289062 L 55 72 L 0 72 Z M 0 0.289062 " clip-rule="nonzero"/></clipPath></defs><g clip-path="url(#f75990b83f)"><path fill="#ffffff" d="M 82.601562 23.417969 C 81.589844 62.429688 70.554688 78.242188 32.242188 90.425781 C 77.238281 97.003906 85.777344 106.703125 87.609375 161.683594 C 94.558594 104.371094 91.324219 92.246094 139.039062 85.601562 C 102.824219 75.34375 94.050781 72.691406 86.554688 42.339844 C 85.25 37.070312 83.800781 30.871094 82.601562 23.417969 Z M 82.601562 23.417969 " fill-opacity="1" fill-rule="evenodd"/></g><g clip-path="url(#9a23b78f91)"><path fill="#ffffff" d="M 25.875 0.339844 C 25.355469 20.371094 19.691406 28.492188 0.015625 34.746094 C 23.121094 38.125 27.507812 43.105469 28.449219 71.339844 C 32.015625 41.910156 30.355469 35.683594 54.855469 32.269531 C 36.261719 27.003906 31.753906 25.640625 27.90625 10.058594 C 27.238281 7.351562 26.492188 4.167969 25.875 0.339844 Z M 25.875 0.339844 " fill-opacity="1" fill-rule="evenodd"/></g><g clip-path="url(#c3cea3b577)"><path fill="#ffffff" d="M 82.601562 23.417969 C 81.589844 62.429688 70.554688 78.242188 32.242188 90.425781 C 77.238281 97.003906 85.777344 106.703125 87.609375 161.683594 C 94.558594 104.371094 91.324219 92.246094 139.039062 85.601562 C 102.824219 75.34375 94.050781 72.691406 86.554688 42.339844 C 85.25 37.070312 83.800781 30.871094 82.601562 23.417969 Z M 82.601562 23.417969 " fill-opacity="1" fill-rule="evenodd"/></g><g clip-path="url(#48b66e92b5)"><path fill="#ffffff" d="M 25.875 0.339844 C 25.355469 20.371094 19.691406 28.492188 0.015625 34.746094 C 23.121094 38.125 27.507812 43.105469 28.449219 71.339844 C 32.015625 41.910156 30.355469 35.683594 54.855469 32.269531 C 36.261719 27.003906 31.753906 25.640625 27.90625 10.058594 C 27.238281 7.351562 26.492188 4.167969 25.875 0.339844 Z M 25.875 0.339844 " fill-opacity="1" fill-rule="evenodd"/></g></svg>