<svg xmlns="http://www.w3.org/2000/svg" xmlns:xlink="http://www.w3.org/1999/xlink" width="207" zoomAndPan="magnify" viewBox="0 0 155.25 140.249994" height="187" preserveAspectRatio="xMidYMid meet" version="1.0"><defs><clipPath id="aa962a5e20"><path d="M 0.0390625 23 L 109 23 L 109 138.757812 L 0.0390625 138.757812 Z M 0.0390625 23 " clip-rule="nonzero"/></clipPath><clipPath id="9976292641"><path d="M 45 0 L 154.464844 0 L 154.464844 116 L 45 116 Z M 45 0 " clip-rule="nonzero"/></clipPath><clipPath id="644bea94dd"><path d="M 0.0390625 23 L 109 23 L 109 138.757812 L 0.0390625 138.757812 Z M 0.0390625 23 " clip-rule="nonzero"/></clipPath><clipPath id="b946dfef56"><path d="M 45 0 L 154.464844 0 L 154.464844 116 L 45 116 Z M 45 0 " clip-rule="nonzero"/></clipPath></defs><g clip-path="url(#aa962a5e20)"><path fill="#ffffff" d="M 108.425781 139.003906 C 56.667969 85.402344 55.046875 85.019531 39.640625 122.515625 C 51.894531 81.675781 50.941406 79.320312 0.0429688 23.332031 C 51.800781 76.933594 53.421875 77.316406 68.828125 39.820312 C 56.574219 80.691406 57.496094 83.011719 108.425781 139.003906 Z M 108.425781 139.003906 " fill-opacity="1" fill-rule="nonzero"/></g><g clip-path="url(#9976292641)"><path fill="#ffffff" d="M 154.132812 115.703125 C 102.378906 62.101562 100.753906 61.6875 85.347656 99.183594 C 97.601562 58.34375 96.679688 55.988281 45.75 0 C 97.507812 53.601562 99.132812 53.984375 114.535156 16.488281 C 102.28125 57.359375 103.238281 59.683594 154.132812 115.703125 Z M 154.132812 115.703125 " fill-opacity="1" fill-rule="nonzero"/></g><g clip-path="url(#644bea94dd)"><path fill="#ffffff" d="M 108.425781 139.003906 C 56.667969 85.402344 55.046875 85.019531 39.640625 122.515625 C 51.894531 81.675781 50.941406 79.320312 0.0429688 23.332031 C 51.800781 76.933594 53.421875 77.316406 68.828125 39.820312 C 56.574219 80.691406 57.496094 83.011719 108.425781 139.003906 Z M 108.425781 139.003906 " fill-opacity="1" fill-rule="nonzero"/></g><g clip-path="url(#b946dfef56)"><path fill="#ffffff" d="M 154.132812 115.703125 C 102.378906 62.101562 100.753906 61.6875 85.347656 99.183594 C 97.601562 58.34375 96.679688 55.988281 45.75 0 C 97.507812 53.601562 99.132812 53.984375 114.535156 16.488281 C 102.28125 57.359375 103.238281 59.683594 154.132812 115.703125 Z M 154.132812 115.703125 " fill-opacity="1" fill-rule="nonzero"/></g></svg>